<svg xmlns="http://www.w3.org/2000/svg" viewBox="0 0 610.28 66.82"><defs><style>.cls-1,.cls-2{fill:#fff;}.cls-2{fill-rule:evenodd;}</style></defs><title>marcamarca</title><g id="Camada_2" data-name="Camada 2"><g id="Layer_1" data-name="Layer 1"><path class="cls-1" d="M317.5,38h-1.84v3.31h-2.42v-11h4.49c2.63,0,4.22,1.55,4.22,3.81v0C322,36.71,320,38,317.5,38Zm2-3.85c0-1.08-.76-1.66-2-1.66h-1.87v3.36h1.92a1.71,1.71,0,0,0,1.92-1.67Z"/><path class="cls-1" d="M332.35,41.34,330,37.82h-1.9v3.52h-2.42v-11h5c2.6,0,4.16,1.36,4.16,3.63v0a3.42,3.42,0,0,1-2.36,3.41l2.69,3.93Zm0-7.25c0-1-.72-1.57-1.9-1.57h-2.41v3.16h2.46c1.18,0,1.86-.63,1.86-1.56Z"/><path class="cls-1" d="M339.06,41.34v-11h2.42v11Z"/><path class="cls-1" d="M354.75,41.34V34.15l-3.1,4.7h-.06l-3.07-4.66v7.14h-2.38v-11h2.61L351.65,35l2.89-4.65h2.61v11Z"/><path class="cls-1" d="M361.7,41.34v-11H370v2.15h-5.9v2.23h5.19v2.16h-5.19v2.31h6v2.16Z"/><path class="cls-1" d="M374.26,41.34v-11h2.42v11Z"/><path class="cls-1" d="M388,41.34l-2.36-3.52h-1.9v3.52h-2.42v-11h5c2.59,0,4.15,1.36,4.15,3.63v0a3.42,3.42,0,0,1-2.36,3.41l2.69,3.93Zm0-7.25c0-1-.72-1.57-1.9-1.57h-2.4v3.16h2.46c1.18,0,1.85-.63,1.85-1.56Z"/><path class="cls-1" d="M402.82,41.34l-1-2.47h-4.65l-1,2.47h-2.47l4.72-11.08h2.23l4.72,11.08Zm-3.33-8.18L398,36.73H401Z"/><path class="cls-1" d="M420.76,41.52a5.56,5.56,0,0,1-5.64-5.66v0a5.59,5.59,0,0,1,5.74-5.69,5.68,5.68,0,0,1,4.34,1.7l-1.54,1.78a4.08,4.08,0,0,0-2.82-1.25,3.27,3.27,0,0,0-3.19,3.43v0a3.27,3.27,0,0,0,3.19,3.46A4,4,0,0,0,423.73,38l1.54,1.55A5.62,5.62,0,0,1,420.76,41.52Z"/><path class="cls-1" d="M437.31,41.34l-1-2.47h-4.66l-1,2.47h-2.47l4.72-11.08h2.23l4.72,11.08ZM434,33.16l-1.46,3.57h2.92Z"/><path class="cls-1" d="M447.71,38h-1.84v3.31h-2.42v-11h4.49c2.63,0,4.22,1.55,4.22,3.81v0C452.16,36.71,450.18,38,447.71,38Zm2-3.85c0-1.08-.75-1.66-2-1.66h-1.87v3.36h1.92a1.7,1.7,0,0,0,1.91-1.67Z"/><path class="cls-1" d="M456,41.34v-11h2.42v11Z"/><path class="cls-1" d="M468,32.56v8.78h-2.42V32.56h-3.35V30.33h9.12v2.23Z"/><path class="cls-1" d="M481.94,41.34l-1-2.47h-4.65l-1,2.47H472.8l4.71-11.08h2.23l4.71,11.08Zm-3.33-8.18-1.46,3.57h2.93Z"/><path class="cls-1" d="M488.08,41.34v-11h2.42v8.8H496v2.2Z"/><path class="cls-1" d="M510.65,41.34h-4.29v-11h4.29c3.46,0,5.85,2.37,5.85,5.47v0A5.51,5.51,0,0,1,510.65,41.34ZM514,35.83a3.16,3.16,0,0,0-3.32-3.31h-1.87v6.63h1.87A3.14,3.14,0,0,0,514,35.86Z"/><path class="cls-1" d="M525.91,41.52a5.64,5.64,0,0,1-5.84-5.66v0a5.85,5.85,0,0,1,11.7,0v0A5.69,5.69,0,0,1,525.91,41.52Zm3.33-5.69a3.34,3.34,0,0,0-3.33-3.46,3.29,3.29,0,0,0-3.3,3.43v0a3.34,3.34,0,0,0,3.33,3.46,3.29,3.29,0,0,0,3.3-3.43Z"/><path class="cls-1" d="M547.71,41.34h-5.23v-11h5.11c2.25,0,3.63,1.12,3.63,2.84v0a2.56,2.56,0,0,1-1.44,2.37,2.69,2.69,0,0,1,2.06,2.7v0C551.83,40.33,550.19,41.34,547.71,41.34Zm1.1-7.75c0-.73-.56-1.14-1.58-1.14h-2.39v2.33h2.23c1.08,0,1.75-.35,1.75-1.17Zm.62,4.4c0-.74-.55-1.19-1.8-1.19h-2.8v2.42h2.88c1.07,0,1.72-.38,1.72-1.19Z"/><path class="cls-1" d="M562.42,41.34l-2.36-3.52h-1.9v3.52h-2.42v-11h5c2.59,0,4.15,1.36,4.15,3.63v0a3.42,3.42,0,0,1-2.36,3.41l2.69,3.93Zm0-7.25c0-1-.72-1.57-1.9-1.57h-2.41v3.16h2.46c1.18,0,1.85-.63,1.85-1.56Z"/><path class="cls-1" d="M577.21,41.34l-1-2.47h-4.65l-1,2.47h-2.47l4.72-11.08H575l4.72,11.08Zm-3.33-8.18-1.46,3.57h2.92Z"/><path class="cls-1" d="M587.11,41.49a7,7,0,0,1-4.67-1.76L583.87,38a5,5,0,0,0,3.28,1.33c1,0,1.59-.39,1.59-1v0c0-.61-.38-.93-2.21-1.4-2.22-.57-3.65-1.18-3.65-3.37v0c0-2,1.61-3.32,3.85-3.32a6.38,6.38,0,0,1,4.09,1.4l-1.26,1.82a5.14,5.14,0,0,0-2.86-1.08c-.92,0-1.41.42-1.41,1v0c0,.73.47,1,2.38,1.45,2.23.58,3.49,1.39,3.49,3.3v0C591.15,40.27,589.48,41.49,587.11,41.49Z"/><path class="cls-1" d="M595.28,41.34v-11h2.42v11Z"/><path class="cls-1" d="M602.36,41.34v-11h2.42v8.8h5.49v2.2Z"/><path class="cls-1" d="M55.74,46.65l.09-2.88c-.05-.1-.1-.2-.14-.3a.43.43,0,0,0,0-.1l-.09-.27s0-.09,0-.13,0-.16-.06-.25a.94.94,0,0,1,0-.15c0-.08,0-.15,0-.23a.89.89,0,0,1,0-.17,1.14,1.14,0,0,1,0-.2,1.09,1.09,0,0,1,0-.2.81.81,0,0,1,0-.17,1.73,1.73,0,0,0,0-.22s0-.08,0-.12a2.13,2.13,0,0,1,.11-.33l.13-.29a.31.31,0,0,1,0-.05l.08-.15,0,0,.06-.09v0l0-.05L56,38.67h0c-.06-.24-.11-.48-.15-.73,0-.08,0-.16,0-.25s0-.17,0-.25,0-.38,0-.58a4.66,4.66,0,0,1,0-.5,1.38,1.38,0,0,1,0-.15c0-.12,0-.24,0-.35a.72.72,0,0,0,0-.15l.07-.37a.68.68,0,0,0,0-.1c0-.15.08-.31.13-.46l.08-2.86-.45-.51c-.18-.2-.36-.41-.54-.62a2.42,2.42,0,0,1-.24-.33l-.18-.33h0L54.2,48.81A14.56,14.56,0,0,1,55.74,46.65Z"/><path class="cls-1" d="M54,57.32v0a1,1,0,0,1,.11-.19l.1-.1.08-.07a1.27,1.27,0,0,1,.21-.16,4.34,4.34,0,0,1-1-1.08A3.42,3.42,0,0,1,52,57.14l-.1,0c-.91.4-2.26,1-4,1.62l1.77.25,1.21.17,1.59-.71.1,0a5.37,5.37,0,0,0,1.38-.9A.94.94,0,0,1,54,57.32Z"/><path class="cls-1" d="M35.4,13.21,14,13.07l.34,11.28h0a10.91,10.91,0,0,1,1.53,2.52l-.37-12.31,19.85.13,19.84-.13-.37,12.19a11.07,11.07,0,0,1,1.49-2.4l.05.06.34-11.32Z"/><path class="cls-1" d="M40,42.51h0"/><path class="cls-1" d="M56.81,50.24a21.9,21.9,0,0,1-2.34,1.23,3.9,3.9,0,0,0-.62,1,6,6,0,0,0-.12,2.25s0,.08,0,.12A3.92,3.92,0,0,0,55,56.4a8.4,8.4,0,0,0,.91-1,6.38,6.38,0,0,1,.48-2.69,3.45,3.45,0,0,1,.39-.66A3.66,3.66,0,0,1,56.81,50.24Z"/><path class="cls-1" d="M16.12,56.75a1.13,1.13,0,0,1,.65.78,5.55,5.55,0,0,0,1.45,1l.09,0c.47.21,1,.47,1.73.75l1.66-.2,1.45-.18c-1.84-.64-3.28-1.28-4.23-1.72l-.11,0a3.44,3.44,0,0,1-1.72-1.62,4.44,4.44,0,0,1-1,1.19h0Z"/><path class="cls-1" d="M58.47,42.83h0Z"/><path class="cls-1" d="M12.38,42.84h0Z"/><path class="cls-1" d="M22.63,62a1.36,1.36,0,0,0-1.1-.28.68.68,0,0,0-.35.13s-.05.15,0,.32l.35,2.17.06.22c.09.18.3.25.65.19a1.12,1.12,0,0,0,.83-.55,1.59,1.59,0,0,0,.15-1.12A1.66,1.66,0,0,0,22.63,62Z"/><path class="cls-1" d="M27,62.57l-.42-.71c-.1-.18-.17-.26-.2-.25s0,.06-.08.19l0,.11-.2.7,0,.07s0,0,0,.07.06.07.18.06l.73-.09c.06,0,.08,0,.08-.07a.07.07,0,0,0,0,0Z"/><path class="cls-1" d="M29.78,60.58a.3.3,0,0,0-.22.1.39.39,0,0,0,0,.27l.07.86a.4.4,0,0,0,.05.2.35.35,0,0,0,.2,0,4.84,4.84,0,0,0,.54-.06.41.41,0,0,0,.19-.11.61.61,0,0,0,.14-.47.85.85,0,0,0-.93-.8Z"/><path class="cls-1" d="M18.79,63.79l-.39-.73c-.09-.17-.16-.26-.19-.26s-.06.06-.1.19l0,.11-.23.69,0,.06s0,.05,0,.07.07.08.19.07l.72-.06c.07,0,.1,0,.09-.05a.15.15,0,0,0,0,0Z"/><path class="cls-1" d="M46.15,61.2a.86.86,0,0,0-.58-.32.34.34,0,0,0-.24,0,.38.38,0,0,0-.09.25l-.11.86a.3.3,0,0,0,0,.21s.09.06.19.07a3.73,3.73,0,0,0,.54.05.38.38,0,0,0,.2-.08.57.57,0,0,0,.23-.43A.83.83,0,0,0,46.15,61.2Z"/><path class="cls-1" d="M14.19,64l-.3-.77c-.07-.19-.12-.28-.16-.28s-.06.06-.11.17l-.05.11-.3.66,0,.06a.1.1,0,0,0,0,.06c0,.06.06.09.18.09l.72,0c.07,0,.1,0,.1,0a.23.23,0,0,0,0,0Z"/><path class="cls-1" d="M36.93,62l-.32-.77c-.08-.18-.13-.27-.16-.27s-.05.05-.11.17l0,.11-.3.66L36,62A.16.16,0,0,0,36,62c0,.06.06.09.17.09h.73c.06,0,.1,0,.1-.05l0,0Z"/><path class="cls-1" d="M57.86,60.3c-.34,0-.71,0-1.06,0a54.08,54.08,0,0,1-7.2-.72,89.75,89.75,0,0,0-13.21-1.11c-1.76,0-3.54.07-5.3.2-3.46.21-6.57.6-9.32.94a69.6,69.6,0,0,1-8,.7c-.43,0-.86,0-1.25,0C8.19,60.06,3.26,59,.81,56.69c.32,1,.61,2.05.82,2.78l.13.47A8.11,8.11,0,0,1,2,61c.19,1.26.41,2.7,2.07,3.64s4.89,2.13,10.5,2.13a52.64,52.64,0,0,0,7.65-.61,88.14,88.14,0,0,1,13-.95c1.63,0,3.28,0,4.92.13h0c2.7.13,5.4.41,8,.8a52.74,52.74,0,0,0,7.65.61c5.61,0,8.81-1.15,10.51-2.12S68.16,62.3,68.36,61a7.45,7.45,0,0,1,.21-1.1,28.15,28.15,0,0,1,1.24-3l0-.11C67.23,59,62.07,60.05,57.86,60.3ZM6,64.34l-.18-.09L5.33,64A3.05,3.05,0,0,0,5,63.93l-.18,0a.07.07,0,0,1,0-.08v0l.09,0a.42.42,0,0,0,.27-.07.57.57,0,0,0,.16-.28l.08-.2L6,61.34a.54.54,0,0,0,0-.33.44.44,0,0,0-.23-.22.38.38,0,0,1-.14-.1.07.07,0,0,1,0-.07s0-.06.08,0l.12.06a1.56,1.56,0,0,0,.28.13l.32.1.18,0L7,61c.05,0,.07,0,.06.08a.17.17,0,0,1,0,.06H7a.36.36,0,0,0-.25,0,.53.53,0,0,0-.15.25l-.73,2-.07.24a.46.46,0,0,0,0,.33.4.4,0,0,0,.24.2c.07,0,.1.07.08.11S6.09,64.37,6,64.34Zm3,.53a.59.59,0,0,1-.53.1l-.22-.07-.29-.08-.26-.07-.29-.08a5.06,5.06,0,0,0-.61-.11l-.13,0c-.05,0-.06,0-.06-.08s0,0,.08,0a.35.35,0,0,0,.25-.12,1,1,0,0,0,.16-.39l.48-2a.39.39,0,0,0-.21-.52l-.14-.06c-.05,0-.08-.05-.07-.09a.08.08,0,0,1,.1-.06l.06,0,.1,0,.1,0,.21.07.37.06.39.07c.1,0,.14.06.13.11s-.05.05-.12,0-.27.07-.32.28L7.63,64c-.07.3-.07.48,0,.54a.58.58,0,0,0,.23.09,1.33,1.33,0,0,0,1.26-.21.59.59,0,0,1,.17-.12s0,0,0,.11A.86.86,0,0,1,9,64.87Zm2.43.54-.23,0-.29-.06-.27,0-.3,0a5.43,5.43,0,0,0-.61,0H9.55s-.07,0-.06-.07,0,0,.07-.06a.32.32,0,0,0,.24-.15,1.13,1.13,0,0,0,.11-.41l.26-2.07a.39.39,0,0,0-.27-.48l-.15,0c-.06,0-.09-.05-.09-.08a.08.08,0,0,1,.09-.07.11.11,0,0,1,.07,0l.09,0,.11,0a1.05,1.05,0,0,0,.22,0,2.06,2.06,0,0,0,.38,0l.39,0c.1,0,.15,0,.14.09S11.11,62,11,62s-.27.1-.29.32l-.27,2.15c0,.31,0,.49,0,.54a.62.62,0,0,0,.24.06A1.33,1.33,0,0,0,12,64.74q.13-.13.15-.13s0,0,0,.11a.84.84,0,0,1-.28.54A.56.56,0,0,1,11.4,65.41Zm4.25.21-.09,0a2.79,2.79,0,0,0-.61-.06,2.62,2.62,0,0,0-.57,0h-.06c-.05,0-.07,0-.07-.07s0,0,.06-.05a.46.46,0,0,0,.2-.12.32.32,0,0,0,.08-.2,2,2,0,0,0-.2-.62.28.28,0,0,0-.14-.17,3.63,3.63,0,0,0-.56,0h-.34l-.22,0c-.06,0-.13.13-.21.33l-.08.19a.42.42,0,0,0,0,.16c0,.21.13.34.42.38.07,0,.1,0,.09.07s0,.07-.09.07l-.12,0a1.21,1.21,0,0,0-.29,0h-.37l-.24,0s-.07,0-.07-.06,0-.06.07-.08a.41.41,0,0,0,.22-.15,3.43,3.43,0,0,0,.24-.47l.71-1.56.12-.25.24-.47.12-.23h0c.06-.12.09-.19.12-.19s.07.07.12.21l.06.13L15.19,65a1,1,0,0,0,.19.3.63.63,0,0,0,.29.14s0,0,0,.07S15.69,65.63,15.65,65.63Zm4.78-.37h-.1a3.88,3.88,0,0,0-.62,0,2.72,2.72,0,0,0-.56.1l-.06,0a.07.07,0,0,1-.08-.07s0,0,.05-.06a.39.39,0,0,0,.18-.14.26.26,0,0,0,.06-.2,2,2,0,0,0-.27-.59c-.05-.09-.1-.15-.16-.15a3.7,3.7,0,0,0-.56,0l-.34,0-.21.06c-.06,0-.11.15-.18.34l-.06.2a.4.4,0,0,0,0,.17c0,.21.17.32.46.33.07,0,.1,0,.1.07s0,.07-.07.07h-.13a1,1,0,0,0-.29,0l-.38.06-.23,0s-.07,0-.07-.06,0-.06.06-.08a.42.42,0,0,0,.2-.17,3.57,3.57,0,0,0,.19-.5l.53-1.63c0-.13.07-.22.09-.26l.19-.5.1-.24h0c0-.13.07-.2.09-.2s.08.06.15.2l.07.12,1.35,2.51a.73.73,0,0,0,.22.28.63.63,0,0,0,.3.1s0,0,.05.07A.05.05,0,0,1,20.43,65.26Zm2.91-.9a1.74,1.74,0,0,1-1,.57l-.41,0-.37,0c-.29.05-.48.1-.57.12l-.14,0s-.06,0-.07-.07a.07.07,0,0,1,.05-.07.28.28,0,0,0,.19-.16.7.7,0,0,0,0-.33l-.35-2.16a.47.47,0,0,0-.19-.34.48.48,0,0,0-.38-.07C20,62,20,62,20,61.93a0,0,0,0,1,0-.06l.13,0,.37-.06.23,0,.42-.1a5.27,5.27,0,0,1,.56-.13,2,2,0,0,1,1.39.21,1.45,1.45,0,0,1,.69,1.06A1.84,1.84,0,0,1,23.34,64.35Zm5.4-.38h-.1A3,3,0,0,0,28,64a2.65,2.65,0,0,0-.57.11l-.06,0c-.05,0-.07,0-.08-.06s0,0,.05-.06a.35.35,0,0,0,.18-.15.29.29,0,0,0,.05-.2,2.16,2.16,0,0,0-.29-.58.3.3,0,0,0-.17-.15,4.16,4.16,0,0,0-.57.05l-.33,0L26,63.1a.69.69,0,0,0-.16.36l-.06.2a.45.45,0,0,0,0,.17c0,.21.18.31.47.31.07,0,.1,0,.1.06s0,.07-.08.08h-.12a1.63,1.63,0,0,0-.3,0l-.37.07-.23.05c-.05,0-.07,0-.08-.05s0-.06.06-.08a.43.43,0,0,0,.19-.18,3.56,3.56,0,0,0,.17-.51l.46-1.65c0-.12.07-.21.07-.27l.17-.5.09-.25h0c0-.13.06-.2.08-.2s.08.05.16.19l.07.13,1.45,2.45a.78.78,0,0,0,.24.27.57.57,0,0,0,.3.09s0,0,.05.06S28.79,64,28.75,64Zm3.17-.38a.85.85,0,0,1-.34.12.61.61,0,0,1-.49-.21,6,6,0,0,1-.63-.91,1.31,1.31,0,0,0-.25-.33.43.43,0,0,0-.29-.05l-.15,0-.11,0s0,.06,0,.12l0,.51a1.62,1.62,0,0,0,.13.63.4.4,0,0,0,.35.17c.07,0,.11,0,.11.07s0,.08-.07.08h-.11a3,3,0,0,0-.4,0l-.3,0-.2,0-.16,0-.09,0c-.06,0-.1,0-.1-.06a.06.06,0,0,1,0-.07.46.46,0,0,0,.21-.16.45.45,0,0,0,0-.28l0-.23v-.1L29,61.26a.79.79,0,0,0-.11-.4.55.55,0,0,0-.4-.17c-.08,0-.11,0-.11-.07a.06.06,0,0,1,.06-.08h.08l.42,0c.16,0,.37,0,.6-.08l.56-.07a1.19,1.19,0,0,1,.81.19.85.85,0,0,1,.36.63.77.77,0,0,1-.1.46.85.85,0,0,1-.35.34s0,0,0,.05a.08.08,0,0,0,0,.06l.07.11.25.37.29.44a1.25,1.25,0,0,0,.26.3.34.34,0,0,0,.25.06l.11,0h.05s0,0,.05.06S32.05,63.53,31.92,63.6Zm1.69.08a1.54,1.54,0,0,1-1.19-.43,1.68,1.68,0,0,1-.51-1.2,2.09,2.09,0,0,1,.15-.82,1.71,1.71,0,0,1,.43-.66,1.71,1.71,0,0,1,1.88-.28l.17.09a.14.14,0,0,0,.08,0,.08.08,0,0,0,.08,0l0-.08,0,0c.05,0,.07.06.08.16v.41l0,.19,0,.11c0,.06,0,.1,0,.15s0,.1-.07.1,0,0-.05-.05a1.23,1.23,0,0,0-.15-.29,1.64,1.64,0,0,0-.23-.3,1.28,1.28,0,0,0-1-.43.89.89,0,0,0-.75.42,1.68,1.68,0,0,0-.25,1A1.78,1.78,0,0,0,33,63a1.06,1.06,0,0,0,.79.33,1.19,1.19,0,0,0,.52-.14,1.09,1.09,0,0,0,.43-.31l.15-.18s0,0,.07,0,0,0,0,.05a.62.62,0,0,1-.18.34A1.61,1.61,0,0,1,33.61,63.68Zm8.66-.22a.54.54,0,0,0,.38.22.07.07,0,0,1,.07.08s-.06.06-.18.06l-.16,0a3.18,3.18,0,0,0-.42-.06,2.66,2.66,0,0,0-.43,0H41.3s-.07,0-.06-.07,0-.06.07-.06a.36.36,0,0,0,.2-.12.53.53,0,0,0,.08-.25v-.12l0-1.67s0-.07,0-.07-.06,0-.11.14l-1,1.94,0,.07c-.05.1-.1.15-.12.15s-.09-.1-.17-.28l-.1-.27-.69-1.83v0s0,0,0,0,0,0,0,.1v.08l-.11,1.26V63a.52.52,0,0,0,.36.48c.07,0,.12.05.11.09s0,.07-.09.06l-.16,0-.18,0-.19,0a2,2,0,0,0-.34,0H38.5s0,0,0,0,0,.06,0,.06l-.09,0a3.74,3.74,0,0,0-.62,0,2.38,2.38,0,0,0-.57,0h-.07a.06.06,0,0,1-.07-.07s0,0,.06-.05a.37.37,0,0,0,.2-.13.28.28,0,0,0,.08-.19,2.14,2.14,0,0,0-.21-.61c0-.1-.09-.15-.15-.17l-.57,0h-.33l-.22,0c-.06,0-.13.13-.2.33l-.08.19a.46.46,0,0,0,0,.17c0,.21.14.33.43.37.06,0,.09,0,.09.07s0,.07-.09.07l-.13,0-.29,0-.37,0-.24,0a.06.06,0,0,1-.07-.06s0-.06.07-.07a.43.43,0,0,0,.21-.16,3.5,3.5,0,0,0,.24-.48l.69-1.56A1.73,1.73,0,0,1,36.2,61l.23-.47.12-.24h0c.05-.13.09-.19.11-.19s.07.07.13.21l.06.13,1.1,2.62a.72.72,0,0,0,.2.3.54.54,0,0,0,.29.13h0s0,0,0,0a.5.5,0,0,0,.29-.21,1,1,0,0,0,.12-.46l.16-1.63,0-.16a.66.66,0,0,0-.12-.48.49.49,0,0,0-.38-.19c-.05,0-.09,0-.09-.08s0-.07.11-.07h.06l.14,0h.54a.24.24,0,0,1,.22.18l.88,2.3c0,.1.07.15.1.15s.06,0,.1-.09l1-2a2.6,2.6,0,0,1,.2-.34.2.2,0,0,1,.15-.07l.11,0,.14,0h.36c.06,0,.09,0,.09.07s0,.06-.07.06a.41.41,0,0,0-.33.14.91.91,0,0,0-.12.47v.16l0,1.56V63A.88.88,0,0,0,42.26,63.47Zm4.79.8a.9.9,0,0,1-.37.05.63.63,0,0,1-.44-.31,4.87,4.87,0,0,1-.43-1,1.4,1.4,0,0,0-.18-.38.43.43,0,0,0-.26-.11h-.27s0,.05-.06.11l-.05.51a1.78,1.78,0,0,0,0,.65.39.39,0,0,0,.31.23c.07,0,.11,0,.1.1s0,.07-.09.06l-.1,0-.41-.07-.29,0h-.47C44,64,44,64,44,63.94s0-.06.06-.06a.36.36,0,0,0,.34-.38l0-.23v-.1l.22-1.79a.84.84,0,0,0,0-.41.56.56,0,0,0-.37-.25c-.07,0-.09-.05-.09-.1a.06.06,0,0,1,.07-.06l.1,0,.41.07.6,0,.57,0a1.22,1.22,0,0,1,.74.35.83.83,0,0,1,.23.69.78.78,0,0,1-.19.43.83.83,0,0,1-.41.26s-.05,0-.05,0a.09.09,0,0,0,0,.06l.05.13.17.42.2.48a1.34,1.34,0,0,0,.19.34.34.34,0,0,0,.23.12h.16s0,0,0,.06S47.2,64.22,47.05,64.26Zm3.09-2.63a2.52,2.52,0,0,1,0,.31c0,.13-.06.18-.12.18s0,0,0-.12a.42.42,0,0,0-.12-.38,1.13,1.13,0,0,0-.56-.19l-.3-.05h-.16c-.09,0-.14.09-.16.23l0,.1-.08.54a.69.69,0,0,0,0,.3s.06.07.15.08h.19l.21,0a.41.41,0,0,0,.41-.22l.08-.11a.08.08,0,0,1,.08,0s0,0,0,.07,0,0,0,.1a.46.46,0,0,1,0,.11c0,.05,0,.18,0,.38s0,.24,0,.34l0,.12a.07.07,0,0,1,0,.05h0s-.06,0-.06-.11a.62.62,0,0,0-.09-.34.72.72,0,0,0-.15-.1,2.31,2.31,0,0,0-.34-.07l-.16,0a.27.27,0,0,0-.16,0,.21.21,0,0,0-.07.13,2.18,2.18,0,0,0-.07.39l0,.22a1.84,1.84,0,0,0,0,.51.41.41,0,0,0,.07.17.3.3,0,0,0,.18.06,1.3,1.3,0,0,0,1.38-.42l0,0,.05,0A.08.08,0,0,1,50,64a.87.87,0,0,1-.19.45.63.63,0,0,1-.31.23.89.89,0,0,1-.45,0l-.34-.07-.28-.07-.42-.08-.54-.06-.15,0a.05.05,0,0,1-.05-.07s0,0,.07-.06a.36.36,0,0,0,.2-.08.42.42,0,0,0,.11-.2,1.65,1.65,0,0,0,.08-.36l.3-2a.64.64,0,0,0,0-.39.61.61,0,0,0-.35-.19.07.07,0,0,1-.06-.09s0-.05.09-.05l.07,0,.12,0,.25,0,.92.15c.54.08.86.13,1,.13h0c.05,0,.07,0,.06.09S50.15,61.54,50.14,61.64Zm6,3.54a.66.66,0,0,1-.28.26,1,1,0,0,1-.45.06l-.34,0-.29,0-.42,0H53.7a.06.06,0,0,1-.06-.06s0-.05.06-.07a.56.56,0,0,0,.2-.1A.47.47,0,0,0,54,64.9a1.46,1.46,0,0,0,.06-.36l.13-2a.39.39,0,0,0-.36-.53h0a.39.39,0,0,0-.25.11,3,3,0,0,0-.33.46l-.5.79-.56.87c-.18.29-.28.44-.3.46L51.7,65c0,.07-.09.1-.13.1s-.05,0-.06-.07l0-.13,0-.16L51,63.33q-.13-.52-.22-.93a3.25,3.25,0,0,0-.17-.64.41.41,0,0,0-.24-.22c-.07,0-.1-.06-.09-.1a.07.07,0,0,1,.09-.06l.07,0,.28.05.41.07.25,0,.22,0s.06,0,.06.08-.06.06-.12.06a.2.2,0,0,0-.21.19,2.78,2.78,0,0,0,.13.92l.34,1.44c0,.06,0,.1.06.1s0,0,.06-.06l.73-1.15a2.54,2.54,0,0,0,.41-.83.31.31,0,0,0-.07-.27.49.49,0,0,0-.28-.17c-.06,0-.08,0-.08-.09s0-.05.08-.05l.13,0,.26.06.24,0a2,2,0,0,0,.37,0s0,0,0,0H54l.25,0,.93.08c.54,0,.87.05,1,0h0c.05,0,.07,0,.07.08s0,.11,0,.21,0,.25,0,.31,0,.19-.11.19,0,0,0-.11a.39.39,0,0,0-.15-.37,1,1,0,0,0-.57-.15l-.3,0h-.16c-.09,0-.14.1-.15.25v.1l0,.55a.73.73,0,0,0,0,.29s.07.07.15.08h.39a.41.41,0,0,0,.4-.24l.06-.12a.07.07,0,0,1,.08,0s.05,0,0,.07a.4.4,0,0,1,0,.11s0,.08,0,.11a3,3,0,0,0,0,.37c0,.13,0,.24,0,.34v.13a.08.08,0,0,1,0,.05l0,0s-.07,0-.07-.11a.5.5,0,0,0-.13-.33.25.25,0,0,0-.15-.09l-.35,0h-.16a.27.27,0,0,0-.17,0,.2.2,0,0,0-.07.15,3.62,3.62,0,0,0,0,.39l0,.22a1.87,1.87,0,0,0,0,.51.27.27,0,0,0,.1.16.28.28,0,0,0,.16.05,1.32,1.32,0,0,0,1.35-.53s0,0,0,0,0,0,.05,0a.09.09,0,0,1,0,.06A.87.87,0,0,1,56.17,65.18Zm3.66.15a.74.74,0,0,1-.36.11A.61.61,0,0,1,59,65.2a4.51,4.51,0,0,1-.59-.94,1.12,1.12,0,0,0-.23-.34.49.49,0,0,0-.29-.06h-.15l-.11,0s0,.05,0,.12l0,.51a1.73,1.73,0,0,0,.11.64.41.41,0,0,0,.35.18c.06,0,.1,0,.1.08s0,.07-.08.07h-.51l-.29,0-.21,0-.17,0h-.1c-.06,0-.09,0-.09-.07a.07.07,0,0,1,.05-.07.37.37,0,0,0,.22-.15.46.46,0,0,0,.05-.27v-.33L57,62.86a.8.8,0,0,0-.09-.39.54.54,0,0,0-.4-.19c-.06,0-.1,0-.1-.08s0-.07.07-.07H57c.16,0,.36,0,.6,0a4.62,4.62,0,0,1,.57-.05,1.11,1.11,0,0,1,.79.23.83.83,0,0,1,.33.64.76.76,0,0,1-.12.45.86.86,0,0,1-.35.33s-.06,0-.06.05l0,.06a.46.46,0,0,1,.07.12l.24.38.27.45a1,1,0,0,0,.25.31.34.34,0,0,0,.24.08H60s.05,0,.05.06S60,65.26,59.83,65.33Zm2.26-.59a1,1,0,0,1-.66.46,2.11,2.11,0,0,1-.55,0l-.26,0c-.08,0-.13,0-.14,0s0-.05-.06-.12a1.55,1.55,0,0,0-.13-.31,2.2,2.2,0,0,1-.17-.41c0-.08,0-.13.06-.13s0,0,.05.05a1.59,1.59,0,0,0,.55.63.86.86,0,0,0,.66.17.64.64,0,0,0,.4-.28.63.63,0,0,0,.11-.47.54.54,0,0,0-.16-.3,1,1,0,0,0-.39-.17l-.4-.1a2.15,2.15,0,0,1-.79-.31.81.81,0,0,1-.29-.52,1,1,0,0,1,.13-.73.85.85,0,0,1,.59-.4,1.25,1.25,0,0,1,.47,0l.17,0,.17,0,.07,0,.08-.07h0s.06,0,.07.07l0,.2,0,.09.08.24.07.21a.19.19,0,0,1,0,.05c0,.07,0,.11,0,.12s-.05,0-.08-.08a1,1,0,0,0-.47-.53.92.92,0,0,0-.64-.14.6.6,0,0,0-.35.22.47.47,0,0,0-.1.38.46.46,0,0,0,.2.3,2.52,2.52,0,0,0,.63.18,2,2,0,0,1,.85.33,1,1,0,0,1,.35.62A1.1,1.1,0,0,1,62.1,64.74Zm4-1-.1,0a2.87,2.87,0,0,0-.59.18,2.57,2.57,0,0,0-.54.24l-.05,0s-.07,0-.09,0,0,0,0-.07a.37.37,0,0,0,.14-.19.28.28,0,0,0,0-.2,2.36,2.36,0,0,0-.42-.5.26.26,0,0,0-.19-.1,3.28,3.28,0,0,0-.54.18l-.31.11-.19.11a.6.6,0,0,0-.08.38v.21a.43.43,0,0,0,0,.17c.07.2.25.26.54.19.06,0,.1,0,.11,0s0,.07-.06.1l-.12,0a1.54,1.54,0,0,0-.29.07l-.34.16-.21.1a.07.07,0,0,1-.09,0,.09.09,0,0,1,0-.09.45.45,0,0,0,.15-.22A4.06,4.06,0,0,0,63,64l.08-1.71c0-.14,0-.23,0-.28l0-.52,0-.26h0c0-.14,0-.2,0-.21s.1,0,.2.15l.11.1,2,2.05a.71.71,0,0,0,.29.21.57.57,0,0,0,.32,0s.05,0,.07.05S66.14,63.69,66.11,63.7Z"/><path class="cls-1" d="M57.82,62.22a.32.32,0,0,0-.22.08.45.45,0,0,0-.06.26l0,.86a.29.29,0,0,0,.05.21s.09,0,.2,0l.54,0a.37.37,0,0,0,.19-.11.58.58,0,0,0,.16-.46.87.87,0,0,0-.27-.61A.85.85,0,0,0,57.82,62.22Z"/><path class="cls-1" d="M64.13,62.73l-.57-.61c-.14-.15-.23-.21-.25-.2s0,.07,0,.2v.12l0,.72V63a.12.12,0,0,0,0,.07s.08.06.19,0l.69-.26c.06,0,.09,0,.07-.08l0,0Z"/><path class="cls-2" d="M39.92,41.39c0,.23,0-.13,0,0Z"/><path class="cls-2" d="M26.45,3.86l.82,4.3L28.14,8c-.12-.72-.18-1.09-.3-1.81s.58-1.44,1.59-1.56,1.86.38,1.93,1.1.1,1.1.17,1.83l.88-.07c-.12-1.75-.19-2.61-.31-4.37A40.16,40.16,0,0,0,26.45,3.86Z"/><path class="cls-2" d="M32.79,3.08c.1,1.75.15,2.62.25,4.37l.88,0c0-.73,0-1.1-.07-1.83s.77-1.35,1.77-1.35,1.8.63,1.78,1.35,0,1.1-.07,1.84l.88,0c.11-1.75.16-2.62.26-4.36A39.39,39.39,0,0,0,32.79,3.08Z"/><path class="cls-2" d="M39.21,3.14c-.13,1.74-.2,2.61-.33,4.36l.88.07.17-1.82a1.59,1.59,0,0,1,1.94-1.11c1,.14,1.71.86,1.58,1.58S43.28,7.3,43.15,8l.87.16.83-4.3A40.6,40.6,0,0,0,39.21,3.14Z"/><path class="cls-2" d="M22,4.92c.48,1.68.72,2.52,1.21,4.2l.22-.06L23,7.3a1.4,1.4,0,0,1,2.71-.68c.16.72.24,1.07.39,1.79l.52-.11c-.35-1.72-.53-2.57-.88-4.29C24.23,4.32,23.49,4.5,22,4.92Z"/><path class="cls-2" d="M45.5,4c-.35,1.71-.54,2.57-.89,4.29l.6.12.39-1.79a1.4,1.4,0,0,1,2.71.7c-.2.7-.31,1.05-.51,1.76l.2.06,1.22-4.2C47.75,4.52,47,4.34,45.5,4Z"/><path class="cls-2" d="M30.32.27l.08.71c-.58.06-.88.1-1.46.17,0-.28-.06-.43-.09-.72L27.53.63c0,.29.07.43.11.72-.58.08-.87.13-1.44.25L26.07.88l-1.22.24c.21,1,.3,1.44.51,2.41a41.48,41.48,0,0,1,6.38-.92c-.08-1-.12-1.47-.2-2.46Z"/><path class="cls-2" d="M22.89,1.58l.18.69-1,.27c-.08-.28-.11-.42-.19-.69l-.9.26c.09.27.13.41.21.68-.4.12-.59.17-1,.3-.09-.28-.14-.41-.22-.69l-.4.13c.31.94.46,1.4.76,2.34a42.11,42.11,0,0,1,4.34-1.2l-.54-2.4Z"/><path class="cls-2" d="M48.27,1.58l-.18.69,1,.27.19-.69.9.26-.2.68,1,.3c.1-.28.13-.41.22-.69l.4.13c-.31.94-.46,1.4-.77,2.34a41.1,41.1,0,0,0-4.34-1.2c.22-1,.33-1.44.55-2.4Z"/><path class="cls-2" d="M37.79,0l0,.72c-.58,0-.87,0-1.46,0,0-.29,0-.43,0-.72H35c0,.29,0,.43,0,.72-.59,0-.87,0-1.46,0,0-.29,0-.43,0-.71-.5,0-.74,0-1.23.07.06,1,.1,1.47.16,2.46a41.11,41.11,0,0,1,6.43,0c.06-1,.1-1.47.16-2.46Z"/><path class="cls-2" d="M45.21.91c-.06.28-.08.42-.13.7l-1.44-.25c0-.28.06-.43.11-.71L42.43.46c0,.28-.06.42-.1.7L40.88,1c0-.29.05-.43.08-.71L39.73.17c-.08,1-.12,1.47-.2,2.46a40.11,40.11,0,0,1,6.37.94c.21-1,.31-1.44.52-2.4Z"/><path class="cls-2" d="M48.23,11.4a47.52,47.52,0,0,0-25.21,0l-.51-1.62a49.49,49.49,0,0,1,26.22,0C48.54,10.43,48.43,10.76,48.23,11.4Z"/><path class="cls-2" d="M48,12a47.05,47.05,0,0,0-24.74,0Z"/><path class="cls-1" d="M58.17,32.64l-.12.19h0l-.12.18-.24.37a7,7,0,0,0-1.08,3.49,7.19,7.19,0,0,0,2.45,5.21,14.8,14.8,0,0,1,1.28,1.46c.43-.16.9-.33,1.43-.5a14.83,14.83,0,0,1,4.5-.6h.1a31.28,31.28,0,0,0-5.57-4.23,3.2,3.2,0,0,1-1.61-2.37,2.77,2.77,0,0,1,.07-.94,3.28,3.28,0,0,1,.2-.64h0l.1-.28a24.06,24.06,0,0,0,2.9,2.39,1.72,1.72,0,0,0,1,.33,2.18,2.18,0,0,0,1.16-.39,6.54,6.54,0,0,0,1.65-1.43L63.07,32l-.56-.52a1,1,0,0,0-.67-.18,2,2,0,0,0-1.08.41.35.35,0,0,1-.45-.05.49.49,0,0,1-.13-.49,2.32,2.32,0,0,0-.1-1.92l-.53-.57-3.1-3a7.45,7.45,0,0,0-1,2,2.56,2.56,0,0,0,.39,2.43A25.93,25.93,0,0,0,58.17,32.64Z"/><path class="cls-1" d="M70.71,52.29A3.54,3.54,0,0,1,68.4,54l-.41.09-.1,0-.34.05-.13,0-.37,0H66.1l1.46-.71h0a1.46,1.46,0,0,0,.55-.48,4.47,4.47,0,0,0,.6-1.4A12.63,12.63,0,0,0,68.93,49a29.41,29.41,0,0,0-6.16-.67l-.78,0a4.27,4.27,0,0,1-.07.44l0,.12s0,0,0,0A4.75,4.75,0,0,1,58.48,52c-1.17.16-1.64,1.54-1.71,2.87,0,.07,0,.13,0,.2l.63.58h-.64a.45.45,0,0,1-.07.15c-.12.2-.25.32-.47.65l1.32.66-2.39,0c-.28,0-.49.41-.49.72s.22.67.49.67h7.49a5.24,5.24,0,0,0,1.43-.35l.13-.1.05,0h0l.93-.88h2.2a4.35,4.35,0,0,0,1.1-.36l.05,0a1,1,0,0,1,.19-.1l.06,0,.2-.12,0,0,.25-.18.06,0,.18-.16L69.6,56l.16-.17.07-.08c.08-.09.15-.19.21-.28s.12-.2.19-.31l.07-.15c0-.06.06-.12.09-.18s.06-.13.08-.2l.05-.14c0-.09,0-.17.07-.26l0-.11a2.66,2.66,0,0,0,.06-.3.32.32,0,0,1,0-.07c0-.11,0-.23,0-.34v-.06c0-.12,0-.25,0-.38v0c0-.13,0-.28,0-.42S70.71,52.4,70.71,52.29ZM60.26,57.14a1,1,0,0,1-1-1,.2.2,0,0,1,.2-.2h1.61a.2.2,0,0,1,.2.2A1,1,0,0,1,60.26,57.14Z"/><path class="cls-1" d="M13,44.89a4.06,4.06,0,0,0,1.75-3c-.3.52-1.48,2.08-2.21,1.21-.11-.13-.13-.19-.13-.21a14.3,14.3,0,0,0-1,1.14A11.24,11.24,0,0,1,13,44.89Z"/><path class="cls-1" d="M15,36.85a7,7,0,0,1-.19,1.65l.06,1.82a3.06,3.06,0,0,1,.31.63A3.38,3.38,0,0,1,15,43.69l.1,3.28a12.51,12.51,0,0,1,1.55,2.47L16,30a3.24,3.24,0,0,1-.47.77c-.32.39-.64.76-.94,1.1L14.7,35A7.55,7.55,0,0,1,15,36.85Z"/><path class="cls-1" d="M6.13,36.35a2.16,2.16,0,0,0,1.15.39,1.7,1.7,0,0,0,1-.33A23,23,0,0,0,11.16,34l.1.28h0a3.57,3.57,0,0,1,.2.64h0a2.87,2.87,0,0,1,.07.94,3.18,3.18,0,0,1-1.62,2.37,31.85,31.85,0,0,0-5.56,4.22h.2a14.12,14.12,0,0,1,4.38.6c.52.18,1,.35,1.42.52a15.43,15.43,0,0,1,1.31-1.48,7.16,7.16,0,0,0,2.45-5.21A7.11,7.11,0,0,0,13,33.38L12.81,33l-.11-.18h0l-.12-.19a24.71,24.71,0,0,0,2.33-2.48,2.56,2.56,0,0,0,.39-2.43,6.84,6.84,0,0,0-1-2l-3.09,3-.52.57a2.25,2.25,0,0,0-.09,1.92.48.48,0,0,1-.13.49.35.35,0,0,1-.44.05,2.08,2.08,0,0,0-1.08-.41,1,1,0,0,0-.68.18L7.67,32,4.46,34.92A6.91,6.91,0,0,0,6.13,36.35Z"/><path class="cls-1" d="M15.59,57.17l-2.39,0,1.32-.66c-.22-.33-.35-.46-.47-.65a.27.27,0,0,1-.06-.15h-.65l.63-.58v-.2c-.07-1.33-.54-2.7-1.7-2.87a4.74,4.74,0,0,1-3.38-3.11.06.06,0,0,1,0,0,.59.59,0,0,1,0-.12,2.92,2.92,0,0,1-.09-.45H8A27.29,27.29,0,0,0,1.8,49,12.37,12.37,0,0,0,2,51.62a4.61,4.61,0,0,0,.6,1.4,1.36,1.36,0,0,0,.55.48h0l1.47.71h-1l-.36,0-.14,0-.34-.05-.1,0L2.34,54A3.53,3.53,0,0,1,0,52.29c0,.11,0,.2,0,.3H0c0,.14,0,.28,0,.42a0,0,0,0,1,0,0c0,.13,0,.26,0,.38s0,0,0,.06a3.39,3.39,0,0,0,0,.34.31.31,0,0,0,0,.07c0,.1,0,.2.06.3s0,.07,0,.11l.07.26a.74.74,0,0,1,0,.14,1.74,1.74,0,0,0,.08.2,1.26,1.26,0,0,0,.08.18c0,.05,0,.1.07.15a2,2,0,0,0,.19.31c.06.1.13.19.2.28l.07.08.17.17.07.07.18.16.05,0,.25.18.05,0,.2.12.07,0a.88.88,0,0,1,.19.1l.05,0a4.39,4.39,0,0,0,1.1.36H5.56l.92.88h0l.05,0,.13.1a5.39,5.39,0,0,0,1.44.35h7.5c.28,0,.49-.35.49-.67S15.87,57.17,15.59,57.17Zm-5.1,0a1,1,0,0,1-1-1,.19.19,0,0,1,.19-.2h1.62a.2.2,0,0,1,.19.2A1,1,0,0,1,10.49,57.14Z"/><path class="cls-1" d="M33.16,26s-.25.57.22.3c1.53.48,2.35-.87,3.19-2.29C32.51,23.68,33.16,26,33.16,26Z"/><path class="cls-1" d="M31.78,26s.61.13.25-.28c.16-1.59-1.34-2.12-2.9-2.64C29.68,27.09,31.78,26,31.78,26Z"/><path class="cls-1" d="M51,24.35h-.38s.07-.19.38-.91c2.06-4.22-1.31-1.72-1.31-1.72S42.26,26.36,41.25,28s-.79,2.65,0,3.68.43.12.69,1.89-.71,1.82-.71,1.82l-2.58.14S36.95,30,36.61,29s-.43-1.89-1.31-1.89a1,1,0,0,0-1,.87.69.69,0,0,1-.38.08.58.58,0,0,0-.45.28,3.54,3.54,0,0,0-.7,0V24.78a.34.34,0,0,0,.08-.21c1.31-.92.73-2.39.11-3.92-2.69,3.05-.5,3.92-.5,3.92l0,0v3.77l-.12,0c-.47.14-.36.39-.36.39l.47,0v1.12h.27V28.84H33l1,1-1.49,5.53v.17L30,35.37s-1-.05-.71-1.82-.12-.86.69-1.89,1-2.08,0-3.68-8.45-6.25-8.45-6.25-3.38-2.49-1.32,1.72c.31.71.38.91.38.91h-.38s-1.1.15.93,2.28c-.38.07-1.59-.31.76,2.75-.33,0-1.62-.1.51,2.18-.29,0-1.41.21.43,2.53-.26,0-1.05,0,.53,1.87-.26,0-1.29.38,1.1,2.05-.16.05-1,.68,1.46,2-.22.24-.27,1.46,1.65,1.58-.07.29-.36,1.37,3.49,1.15,0,.2.15.53-.64.55s-2-.12-.75.77,1.82-.27,2.09,1.49c.07.62.19,1.34.19,1.34l-3.21,5.7s.79-.25,1.15.14a2.21,2.21,0,0,0,2,.86,2.51,2.51,0,0,0,2.08.81h0a2.24,2.24,0,0,0,2.78-.07,2.61,2.61,0,0,0,2.52-.74,2.21,2.21,0,0,0,2-.86c.37-.39,1.14-.14,1.14-.14l-3.21-5.7s.13-.72.19-1.34c.27-1.76.8-.6,2.09-1.49s.05-.74-.74-.77-.65-.36-.65-.55c3.86.22,3.57-.86,3.5-1.15,1.92-.12,1.86-1.34,1.65-1.58,2.47-1.36,1.63-2,1.46-2,2.39-1.67,1.37-2.05,1.1-2.05,1.58-1.92.79-1.85.53-1.87,1.85-2.32.73-2.53.44-2.53,2.13-2.28.83-2.16.5-2.18,2.35-3.06,1.14-2.68.77-2.75C52.12,24.5,51,24.35,51,24.35ZM35.14,29a.43.43,0,1,1,.43-.43A.43.43,0,0,1,35.14,29Z"/><path class="cls-1" d="M14,46.59c-.79-.9-1.84-1.86-5.25-3A13.51,13.51,0,0,0,4.56,43a22,22,0,0,0-4.33.43A6.63,6.63,0,0,1,1.84,48.4,28.36,28.36,0,0,1,8,47.72c2.74,0,6.4.47,8.23,2.69a4.1,4.1,0,0,1,.43.63A12.12,12.12,0,0,0,14,46.59Zm-9.65.35a1,1,0,0,1-.66.37,2.42,2.42,0,0,1-.53,0l-.25,0c-.07,0-.12,0-.13,0s0,0,0-.11a2.81,2.81,0,0,0-.11-.29,1.63,1.63,0,0,1-.15-.37c0-.07,0-.11.05-.11s0,0,.05,0a1.54,1.54,0,0,0,.5.59.92.92,0,0,0,.63.17.63.63,0,0,0,.41-.22.5.5,0,0,0,.13-.41.44.44,0,0,0-.13-.28.9.9,0,0,0-.38-.16L3.37,46a2.14,2.14,0,0,1-.74-.31.69.69,0,0,1-.25-.47.81.81,0,0,1,.16-.64.87.87,0,0,1,.59-.32,1.25,1.25,0,0,1,.45,0l.16,0,.16,0,.07,0,.09-.06h0s.06,0,.07.07l0,.18,0,.08.06.21.05.2a.05.05,0,0,1,0,0c0,.06,0,.1,0,.1s-.06,0-.08-.08a1,1,0,0,0-.42-.48.91.91,0,0,0-.62-.15.51.51,0,0,0-.34.17.42.42,0,0,0-.12.34.41.41,0,0,0,.19.27,2.55,2.55,0,0,0,.59.18,2.09,2.09,0,0,1,.81.32.93.93,0,0,1,.3.56A.88.88,0,0,1,4.38,46.95Zm1.88.12H6.07a4.8,4.8,0,0,0-.51,0,1.93,1.93,0,0,0-.37,0l-.17,0a.06.06,0,0,1-.07,0v0L5,47a.48.48,0,0,0,.22-.16.51.51,0,0,0,0-.28V46.4l-.12-1.75A.46.46,0,0,0,5,44.36a.45.45,0,0,0-.29-.1l-.15,0a.06.06,0,0,1,0-.05s0-.06.06-.06H5l.33,0,.17,0,.38,0c.05,0,.08,0,.08.05s0,0,0,.05l-.06,0a.42.42,0,0,0-.21.1.44.44,0,0,0,0,.25l.12,1.87,0,.22a.37.37,0,0,0,.15.25.45.45,0,0,0,.29.07c.08,0,.12,0,.13.06S6.36,47.06,6.26,47.06Zm1.22-.57a1.11,1.11,0,0,0,.74.34,1.59,1.59,0,0,0,.51-.08,1.3,1.3,0,0,0,.43-.25l.16-.15a.07.07,0,0,1,.06,0s0,0,0,.05-.07.15-.19.28A1.62,1.62,0,0,1,8,47.12a1.58,1.58,0,0,1-1.12-.45,1.44,1.44,0,0,1-.39-1.09,1.68,1.68,0,0,1,.65-1.26A1.75,1.75,0,0,1,9,44.2l.15.09a.15.15,0,0,0,.08,0,.07.07,0,0,0,.07,0l.05-.07s0,0,0,0,.07.05.07.15v.53l0,.1a1.14,1.14,0,0,1,0,.14.07.07,0,0,1-.07.08s0,0-.05-.05a1,1,0,0,0-.12-.27A2,2,0,0,0,9,44.59a1.23,1.23,0,0,0-.9-.45.9.9,0,0,0-.74.32,1.33,1.33,0,0,0-.31.87A1.49,1.49,0,0,0,7.47,46.5Z"/><path class="cls-1" d="M66.28,43a14.28,14.28,0,0,0-4.33.57c-3.52,1.14-4.6,2.11-5.41,3A11.92,11.92,0,0,0,53.83,51a5.71,5.71,0,0,1,.45-.62c1.89-2.22,5.67-2.69,8.49-2.69a30,30,0,0,1,6.32.68,6.57,6.57,0,0,1,1.66-4.95A23.31,23.31,0,0,0,66.28,43ZM63,46.84a.64.64,0,0,1-.24.27,1.15,1.15,0,0,1-.44.12l-.36,0h-.3l-.43,0-.56.08-.14,0a.07.07,0,0,1-.08,0,.08.08,0,0,1,.05-.07.41.41,0,0,0,.18-.12.32.32,0,0,0,.05-.2,1.58,1.58,0,0,0,0-.31L60.46,45a.49.49,0,0,0-.15-.32.65.65,0,0,0-.39-.08.08.08,0,0,1-.08-.06s0-.06.08-.06h.2l.25,0,1-.09c.55-.06.89-.1,1-.12h0s.07,0,.08.06a1.24,1.24,0,0,0,0,.18,1.52,1.52,0,0,1,.05.26c0,.11,0,.17-.07.19s0,0-.06-.09a.35.35,0,0,0-.22-.29,1.35,1.35,0,0,0-.61,0l-.31,0-.17,0c-.08,0-.11.11-.1.24l0,.08.06.47a.53.53,0,0,0,.08.25s.08,0,.17,0h.07l.11,0,.21,0a.4.4,0,0,0,.36-.28l0-.11a.07.07,0,0,1,.06,0,.05.05,0,0,1,.07,0v.1a.71.71,0,0,1,0,.1,2.34,2.34,0,0,0,.07.32,1.66,1.66,0,0,1,.05.29l0,.11v0l0,0s-.07,0-.09-.07a.43.43,0,0,0-.19-.26.34.34,0,0,0-.17-.06l-.35,0-.18,0a.24.24,0,0,0-.16.05.18.18,0,0,0,0,.13,2.61,2.61,0,0,0,0,.35l0,.19a1.35,1.35,0,0,0,.12.43.28.28,0,0,0,.12.12.36.36,0,0,0,.19,0c.68-.07,1.1-.29,1.26-.67,0,0,0,0,0,0H63l0,0A.71.71,0,0,1,63,46.84Zm2.1,0a1.07,1.07,0,0,1-.74.3,2.56,2.56,0,0,1-.56-.09L63.52,47l-.13,0a.29.29,0,0,1,0-.11,1.44,1.44,0,0,0-.08-.29,1.59,1.59,0,0,1-.1-.38c0-.07,0-.11.07-.11s0,0,.05.05a1.42,1.42,0,0,0,.45.62,1.05,1.05,0,0,0,.64.24.69.69,0,0,0,.46-.18.48.48,0,0,0,.19-.39.39.39,0,0,0-.11-.28,1,1,0,0,0-.37-.2l-.39-.14a2.55,2.55,0,0,1-.76-.38.65.65,0,0,1-.21-.49.74.74,0,0,1,.25-.6,1,1,0,0,1,.68-.26,1.53,1.53,0,0,1,.47.07l.17.06.16,0,.07,0,.1,0h0s.05,0,.05.07v.17a.29.29,0,0,0,0,.07l0,.21,0,.2a.2.2,0,0,1,0,0c0,.06,0,.09-.06.09s-.06,0-.06-.08a1,1,0,0,0-.39-.51,1.09,1.09,0,0,0-.64-.21.69.69,0,0,0-.39.14.4.4,0,0,0-.17.31.38.38,0,0,0,.17.28,2.37,2.37,0,0,0,.6.24,2.27,2.27,0,0,1,.82.39.82.82,0,0,1,.25.58A.83.83,0,0,1,65.08,46.84Zm4-2.08v.19C69,45,69,45,69,45s-.06,0-.08-.09a.4.4,0,0,0-.17-.3.81.81,0,0,0-.42-.12,1.63,1.63,0,0,0-.49,0c-.06,0-.1.12-.12.25l-.19,1.63a.81.81,0,0,0,.07.53.58.58,0,0,0,.42.2c.06,0,.08,0,.07.09s0,.05-.08,0h-.06l-.19,0-.32,0h-.1l-.27,0-.56,0h-.12c-.05,0-.07,0-.07-.06s0-.06,0-.06.05,0,.1,0a.5.5,0,0,0,.32-.1.48.48,0,0,0,.15-.29v-.11l.21-1.91c0-.12-.05-.18-.19-.19a2.66,2.66,0,0,0-.7,0,.32.32,0,0,0-.19.1,1,1,0,0,0-.15.29l0,.05c0,.07-.05.09-.1.09s-.08,0-.07-.07a1,1,0,0,1,0-.17l.05-.18.05-.19,0-.13a.11.11,0,0,1,.11-.08l.1,0,.28,0,.51,0,.62.06c.39,0,.82.06,1.26.08h.17c.09,0,.13.05.13.11v.16S69,44.66,69,44.76Z"/><path class="cls-1" d="M16.42,51.9a4.34,4.34,0,0,0-.31-.4c-.56-.27-1.66-.85-2.47-1.36a3.67,3.67,0,0,1,.13,1.69,3,3,0,0,1,.59.91,6.27,6.27,0,0,1,.48,2.69,8.33,8.33,0,0,0,.82.91,3.94,3.94,0,0,0,1-1.29A5.85,5.85,0,0,0,16.42,51.9Z"/><path class="cls-1" d="M57.76,44.8a12.18,12.18,0,0,1,1.69-.89c-.29-.35-.61-.71-1-1.07,0,0,0,.09-.13.21-.74.87-1.91-.69-2.22-1.21A4,4,0,0,0,57.76,44.8Z"/><path class="cls-1" d="M95.08,41.15c-4.24,0-7.71-.78-10.51-3.66l4.36-4.37c1.44,1.44,4,1.95,6.19,1.95,2.69,0,4-.89,4-2.49a2.32,2.32,0,0,0-.55-1.63,3.11,3.11,0,0,0-1.83-.74l-3.35-.47a9.35,9.35,0,0,1-5.57-2.45,7.68,7.68,0,0,1-1.9-5.57c0-5.06,3.81-8.76,10.13-8.76,4,0,7,.93,9.34,3.31l-4.28,4.28C99.33,18.79,97,18.9,95.82,18.9c-2.37,0-3.35,1.36-3.35,2.57A1.81,1.81,0,0,0,93,22.76a3.14,3.14,0,0,0,1.91.82l3.35.47a9.32,9.32,0,0,1,5.46,2.3c1.48,1.44,2.06,3.51,2.06,6.08C105.79,38.06,100.92,41.15,95.08,41.15Zm28.36-.24-1.28-4.13h-8.53l-1.36,4.13h-7.13l10.09-27.73h5.26l10.09,27.73ZM118,23.69l-2.49,7.41h4.83Zm13.74,17.22V13.18h6.81V34.83h11.64v6.08Zm28.05,0h-5.06L145.6,13.18h7l4.67,15.5,4.6-15.5H169Zm21.46,0L180,36.78h-8.53l-1.36,4.13H163l10.09-27.73h5.26L188.4,40.91Zm-5.42-17.22-2.49,7.41h4.83Zm31.55,14.49a10.31,10.31,0,0,1-7.47,2.72H189.65V13.18h10.28a10.33,10.33,0,0,1,7.47,2.73c3.23,3.23,2.88,6.78,2.88,11.14S210.64,35,207.41,38.18Zm-4.67-17.37a3.55,3.55,0,0,0-3.28-1.56h-3V34.83h3a3.54,3.54,0,0,0,3.28-1.55c.55-.78.74-1.52.74-6.23S203.29,21.59,202.74,20.81ZM230.48,38A11.18,11.18,0,0,1,215,38c-2.92-2.92-2.81-6.81-2.81-11s-.11-8.06,2.81-11a11.2,11.2,0,0,1,15.5,0c2.92,2.92,2.8,6.82,2.8,11S233.41,35.11,230.48,38Zm-5-17.8a3.68,3.68,0,0,0-5.45,0c-.62.82-1,1.76-1,6.81s.39,6,1,6.78a3.6,3.6,0,0,0,5.45,0c.63-.82,1-1.72,1-6.78S226.08,21,225.46,20.23Zm23.83,20.68-4.9-10.32h-2.3V40.91h-6.82V13.18h11c6.16,0,9.47,4.37,9.47,8.92a8,8,0,0,1-4.52,7.24l6,11.57Zm-3.35-21.62h-3.85V24.9h3.85a2.81,2.81,0,1,0,0-5.61Z"/><path class="cls-1" d="M115.14,57.87h-3.23v4.7h-1.5V49.26h5c3,0,5,1.6,5,4.24C120.37,56.39,118,57.87,115.14,57.87Zm.13-7.22h-3.36V56.5h3.28c2.21,0,3.65-1.18,3.65-2.95C118.85,51.64,117.42,50.65,115.27,50.65Zm16.79,11.92-3.86-5.17H124.4v5.17h-1.5V49.26h5.73c2.93,0,4.81,1.58,4.81,4,0,2.22-1.52,3.52-3.61,3.9l4.09,5.43Zm-3.55-11.92H124.4V56h4.09c2,0,3.42-1,3.42-2.75S130.65,50.65,128.51,50.65Zm17.55,0h-8.12v4.54h7.26v1.37h-7.26V61.2h8.22v1.37h-9.72V49.26h9.63Zm12.47,0h-8.06V55.4h7.2v1.37h-7.2v5.8H149V49.26h9.56Zm12.32,0h-8.12v4.54H170v1.37h-7.26V61.2h8.22v1.37h-9.72V49.26h9.63Zm4.54-1.37V62.57h-1.5V49.26Zm8.72,13.31H182.6V50.65h-4.47V49.26h10.46v1.38h-4.47Zm18-5.68c0,3.88-2.23,5.89-5.56,5.89S191,60.76,191,57V49.26h1.5V56.9c0,2.87,1.52,4.49,4.07,4.49s4-1.48,4-4.39V49.26h1.5Zm12.5,5.68-3.86-5.17h-3.8v5.17h-1.5V49.26h5.72c2.93,0,4.81,1.58,4.81,4,0,2.22-1.52,3.52-3.61,3.9l4.08,5.43ZM211,50.65h-4.11V56H211c2,0,3.42-1,3.42-2.75S213.17,50.65,211,50.65Zm20.32,11.92h-1.62L228.18,59h-7.24l-1.58,3.52h-1.54l6.06-13.4h1.41Zm-6.79-11.66-3,6.79h6.06Z"/><rect class="cls-1" x="284.71" y="4.88" width="1" height="61.94"/></g></g></svg>